<svg width="1280" height="800" viewBox="0 0 1280 800" fill="none" xmlns="http://www.w3.org/2000/svg">
<g clip-path="url(#clip0_3201_3661)">
<rect width="1280" height="800" fill="#00684A"/>
<g clip-path="url(#clip1_3201_3661)">
<path d="M632 70.0829C632 7.07667 683.077 -44 746.083 -44C808.844 -44 860.166 6.87793 860.166 69.639C860.166 132.4 911.044 183.278 973.805 183.278H1201.08C1263.84 183.278 1314.72 234.378 1314.72 297.139C1314.72 359.655 1365.4 410.556 1427.92 410.556C1490.92 410.556 1542 461.633 1542 524.639C1542 587.645 1490.92 638.722 1427.92 638.722H1201.08C1138.32 638.722 1087.44 689.6 1087.44 752.361C1087.44 815.122 1036.12 866 973.361 866C910.6 866 859.278 815.122 859.278 752.361C859.278 689.6 808.4 638.722 745.639 638.722C682.878 638.722 632 587.844 632 525.083V70.0829Z" fill="#E3FCF7"/>
</g>
<g clip-path="url(#clip2_3201_3661)">
<path d="M1046.27 622.099H568.108L661.539 333.534H1139.71L1046.27 622.099Z" fill="#27EF57" stroke="black" stroke-linecap="round" stroke-linejoin="round"/>
<path d="M1041.21 610.172H563.027L656.459 321.607H1134.63L1041.21 610.172Z" fill="#F9EBFF" stroke="black" stroke-linecap="round" stroke-linejoin="round"/>
<path d="M627.809 565.987L692.822 360.759H1041.21" stroke="black" stroke-linecap="round" stroke-linejoin="round"/>
<path d="M563.027 610.172L568.108 622.099H1046.27L1041.21 610.172H563.027Z" fill="#B45AF2" stroke="black" stroke-linejoin="round"/>
<path d="M1041.21 610.172L1134.63 321.607L1139.71 333.518L1046.27 622.1L1041.21 610.172Z" fill="black" stroke="black" stroke-linecap="round" stroke-linejoin="round"/>
<path d="M597.081 278.329L587.721 258.353L602.685 238.438L612.368 257.783L597.081 278.329Z" fill="black" stroke="black" stroke-linecap="round" stroke-linejoin="round"/>
<path d="M597.081 278.329L618.818 281.715L633.767 261.816L612.43 257.922L597.081 278.329Z" fill="white" stroke="black" stroke-linecap="round" stroke-linejoin="round"/>
<path d="M623.837 242.593L602.685 238.453L612.43 257.937L633.767 261.831L623.822 242.593H623.837Z" fill="white" stroke="black" stroke-linecap="round" stroke-linejoin="round"/>
<path d="M665.034 345.307L649.732 342.368L637.015 382.582L659.8 386.045L675.241 365.376L665.019 345.292L665.034 345.307Z" fill="black" stroke="black" stroke-linecap="round" stroke-linejoin="round"/>
<path d="M855.947 385.476L817.798 364.791L818.26 315.804L856.178 335.119L855.947 385.476Z" fill="#00ED64" stroke="black" stroke-miterlimit="10"/>
<path d="M855.947 385.476L894.326 365.484L894.773 316.543L856.439 335.273L855.947 385.491V385.476Z" fill="black" stroke="black" stroke-linecap="round" stroke-linejoin="round"/>
<path d="M856.578 297.013L818.26 315.127L856.439 334.596L894.773 315.866L856.563 297.028L856.578 297.013Z" fill="#00ED64" stroke="black" stroke-linecap="round" stroke-linejoin="round"/>
<path d="M1129.87 453.777L1066.55 649.34" stroke="black" stroke-miterlimit="10" stroke-dasharray="2 2"/>
<path d="M1164.28 408.515L1104.73 592.427" stroke="black" stroke-miterlimit="10" stroke-dasharray="2 2"/>
<path d="M1033.91 673.272L1060.64 682.26L1087.36 691.263L1066.21 709.9L1045.06 728.538L1039.49 700.913L1033.91 673.272Z" fill="white" stroke="black" stroke-miterlimit="10"/>
<path d="M1054.85 697.003L1045.06 728.538L1087.36 691.263L1054.85 697.003Z" fill="black"/>
<path d="M1057.39 699.897L1033.91 673.272" stroke="black" stroke-miterlimit="10"/>
<path d="M704.076 501.687H575.097C562.224 501.687 551.789 512.119 551.789 524.988C551.789 537.856 562.224 548.288 575.097 548.288H704.076C716.948 548.288 727.384 537.856 727.384 524.988C727.384 512.119 716.948 501.687 704.076 501.687Z" fill="black" stroke="black" stroke-miterlimit="10"/>
<path d="M550.527 524.664L552.081 531.374V527.342L550.527 524.664Z" fill="black"/>
<path d="M725.937 513.768L727.522 520.509L726.214 517.123L725.937 513.768Z" fill="black"/>
<path d="M702.921 496.793H573.942C561.07 496.793 550.634 507.225 550.634 520.094C550.634 532.962 561.07 543.394 573.942 543.394H702.921C715.794 543.394 726.229 532.962 726.229 520.094C726.229 507.225 715.794 496.793 702.921 496.793Z" fill="white" stroke="black" stroke-miterlimit="10"/>
<path d="M566.999 525.342L580.07 520.109L566.999 514.845V509.028L588.167 517.862V522.356L566.999 531.174V525.342Z" fill="#00E064"/>
<path d="M566.999 525.342L580.07 520.109L566.999 514.845V509.028L588.167 517.862V522.356L566.999 531.174V525.342Z" fill="#B1FF05" stroke="black" stroke-linecap="round" stroke-linejoin="round"/>
<path d="M596.003 520.094H714.852" stroke="black" stroke-miterlimit="10"/>
<path d="M617.356 455.085H524.232C511.36 455.085 500.924 465.518 500.924 478.386C500.924 491.255 511.36 501.687 524.232 501.687H617.356C630.229 501.687 640.664 491.255 640.664 478.386C640.664 465.518 630.229 455.085 617.356 455.085Z" fill="black" stroke="black" stroke-miterlimit="10"/>
<path d="M499.662 478.063L501.217 484.773V480.741L499.662 478.063Z" fill="black"/>
<path d="M639.217 467.167L640.802 473.908L639.509 470.522L639.217 467.167Z" fill="black"/>
<path d="M616.201 450.191H523.077C510.205 450.191 499.77 460.623 499.77 473.492C499.77 486.361 510.205 496.793 523.077 496.793H616.201C629.074 496.793 639.509 486.361 639.509 473.492C639.509 460.623 629.074 450.191 616.201 450.191Z" fill="white" stroke="black" stroke-miterlimit="10"/>
<path d="M516.135 478.725L529.205 473.492L516.135 468.229V462.411L537.303 471.245V475.739L516.135 484.558V478.725Z" fill="#00E064"/>
<path d="M516.135 478.725L529.205 473.492L516.135 468.229V462.411L537.303 471.245V475.739L516.135 484.558V478.725Z" fill="#00ED64" stroke="black" stroke-linecap="round" stroke-linejoin="round"/>
<path d="M545.154 473.492H628.132" stroke="black" stroke-miterlimit="10"/>
<path d="M692.822 360.759V133.77" stroke="black" stroke-linecap="round" stroke-linejoin="round"/>
<path d="M933.971 448.324C949.561 442.248 957.271 424.688 951.193 409.103C945.115 393.519 927.55 385.81 911.96 391.887C896.37 397.963 888.66 415.523 894.738 431.108C900.816 446.693 918.381 454.401 933.971 448.324Z" fill="#00ED64" stroke="black" stroke-miterlimit="10"/>
<path d="M916.787 449.745C922.545 450.946 928.703 450.499 934.553 448.083C950.01 441.681 957.338 423.967 950.933 408.515C948.516 402.667 944.467 398.003 939.541 394.787C936.17 414.563 928.38 433.385 916.772 449.76L916.787 449.745Z" fill="black" stroke="black" stroke-miterlimit="10"/>
<path d="M822.432 410.023L784.222 462.411L824.464 488.436L862.566 459.687L822.432 410.023Z" fill="#00ED64" stroke="black" stroke-linecap="round" stroke-linejoin="round"/>
<path d="M822.432 410.023L824.449 488.436L862.551 459.703L822.432 410.023Z" fill="black"/>
<path d="M1059.04 158.269L1058.61 158.018L1058.11 158.884L1058.54 159.134L1059.04 158.269ZM1082.87 178.216L1083.24 177.881L1083.24 177.881L1082.87 178.216ZM1058.54 159.134C1058.82 159.296 1059.1 159.459 1059.38 159.623L1059.88 158.763C1059.6 158.597 1059.32 158.432 1059.04 158.269L1058.54 159.134ZM1061.03 160.625C1061.58 160.964 1062.12 161.309 1062.67 161.659L1063.21 160.819C1062.66 160.465 1062.11 160.117 1061.56 159.775L1061.03 160.625ZM1064.28 162.725C1064.81 163.086 1065.35 163.452 1065.87 163.823L1066.45 163.005C1065.92 162.63 1065.38 162.26 1064.84 161.896L1064.28 162.725ZM1067.45 164.952C1067.97 165.333 1068.48 165.719 1069 166.111L1069.6 165.316C1069.08 164.92 1068.56 164.53 1068.04 164.145L1067.45 164.952ZM1070.52 167.3C1071.03 167.701 1071.53 168.107 1072.03 168.519L1072.66 167.749C1072.16 167.333 1071.65 166.922 1071.14 166.517L1070.52 167.3ZM1073.5 169.767C1073.99 170.187 1074.48 170.613 1074.96 171.044L1075.63 170.299C1075.14 169.863 1074.65 169.434 1074.16 169.009L1073.5 169.767ZM1076.39 172.349C1076.86 172.787 1077.33 173.231 1077.79 173.681L1078.49 172.962C1078.02 172.508 1077.55 172.06 1077.07 171.617L1076.39 172.349ZM1079.17 175.04C1079.62 175.496 1080.07 175.958 1080.52 176.425L1081.24 175.734C1080.79 175.262 1080.34 174.796 1079.88 174.335L1079.17 175.04ZM1081.85 177.836C1082.06 178.073 1082.28 178.312 1082.5 178.551L1083.24 177.881C1083.02 177.639 1082.8 177.398 1082.58 177.159L1081.85 177.836ZM1082.5 178.551C1082.72 178.794 1082.93 179.038 1083.15 179.282L1083.9 178.62C1083.68 178.373 1083.46 178.127 1083.24 177.881L1082.5 178.551ZM1084.43 180.759C1084.85 181.257 1085.27 181.758 1085.68 182.263L1086.46 181.63C1086.04 181.121 1085.62 180.614 1085.19 180.111L1084.43 180.759ZM1086.91 183.789C1087.31 184.302 1087.71 184.819 1088.1 185.339L1088.9 184.737C1088.5 184.212 1088.1 183.69 1087.69 183.171L1086.91 183.789ZM1089.26 186.913C1089.65 187.442 1090.02 187.973 1090.39 188.508L1091.21 187.938C1090.84 187.398 1090.46 186.861 1090.07 186.327L1089.26 186.913ZM1091.49 190.126C1091.85 190.67 1092.21 191.217 1092.56 191.766L1093.4 191.229C1093.05 190.674 1092.69 190.122 1092.32 189.572L1091.49 190.126ZM1093.59 193.425C1093.93 193.983 1094.27 194.544 1094.59 195.106L1095.46 194.603C1095.13 194.035 1094.79 193.469 1094.45 192.905L1093.59 193.425ZM1095.56 196.807C1095.88 197.377 1096.19 197.95 1096.49 198.525L1097.38 198.056C1097.07 197.476 1096.75 196.897 1096.43 196.321L1095.56 196.807ZM1097.39 200.263C1097.69 200.845 1097.97 201.43 1098.26 202.017L1099.16 201.585C1098.87 200.992 1098.58 200.401 1098.28 199.812L1097.39 200.263ZM1099.08 203.788C1099.36 204.382 1099.62 204.979 1099.88 205.577L1100.8 205.18C1100.54 204.576 1100.27 203.974 1099.99 203.374L1099.08 203.788ZM1100.64 207.38C1100.88 207.984 1101.12 208.59 1101.36 209.197L1102.29 208.838C1102.05 208.224 1101.81 207.612 1101.56 207.002L1100.64 207.38ZM1102.04 211.03C1102.26 211.644 1102.48 212.259 1102.69 212.876L1103.64 212.554C1103.42 211.931 1103.21 211.309 1102.98 210.689L1102.04 211.03ZM1103.3 214.733C1103.5 215.355 1103.69 215.978 1103.88 216.603L1104.83 216.319C1104.65 215.688 1104.45 215.058 1104.25 214.43L1103.3 214.733ZM1104.41 218.484C1104.59 219.113 1104.75 219.743 1104.91 220.374L1105.88 220.129C1105.72 219.491 1105.55 218.854 1105.38 218.219L1104.41 218.484ZM1105.37 222.275C1105.52 222.911 1105.66 223.547 1105.8 224.185L1106.78 223.978C1106.64 223.334 1106.5 222.691 1106.35 222.049L1105.37 222.275ZM1106.18 226.102C1106.31 226.743 1106.42 227.384 1106.53 228.027L1107.52 227.859C1107.41 227.21 1107.29 226.562 1107.17 225.914L1106.18 226.102ZM1106.84 229.958C1106.94 230.603 1107.03 231.249 1107.11 231.895L1108.11 231.766C1108.02 231.113 1107.93 230.461 1107.83 229.81L1106.84 229.958ZM1107.35 233.837C1107.42 234.485 1107.48 235.134 1107.54 235.783L1108.54 235.693C1108.48 235.038 1108.41 234.382 1108.34 233.728L1107.35 233.837ZM1107.7 237.733C1107.75 238.384 1107.79 239.034 1107.82 239.685L1108.82 239.635C1108.78 238.977 1108.74 238.32 1108.7 237.663L1107.7 237.733ZM1107.9 241.64C1107.92 242.292 1107.93 242.944 1107.94 243.595L1108.94 243.584C1108.93 242.926 1108.92 242.267 1108.9 241.609L1107.9 241.64ZM1107.94 245.551C1107.94 246.204 1107.92 246.855 1107.91 247.507L1108.91 247.535C1108.92 246.877 1108.94 246.218 1108.94 245.56L1107.94 245.551ZM1107.83 249.462C1107.8 250.113 1107.76 250.764 1107.72 251.415L1108.72 251.482C1108.76 250.825 1108.8 250.167 1108.83 249.51L1107.83 249.462ZM1107.57 253.365C1107.51 254.014 1107.45 254.663 1107.38 255.312L1108.37 255.418C1108.44 254.763 1108.51 254.108 1108.57 253.452L1107.57 253.365ZM1107.15 257.254C1107.07 257.901 1106.98 258.547 1106.89 259.192L1107.88 259.338C1107.97 258.686 1108.06 258.034 1108.14 257.381L1107.15 257.254ZM1106.58 261.124C1106.47 261.767 1106.36 262.41 1106.24 263.051L1107.22 263.235C1107.35 262.588 1107.46 261.939 1107.57 261.29L1106.58 261.124ZM1105.86 264.969C1105.79 265.288 1105.73 265.607 1105.66 265.926L1106.63 266.139C1106.7 265.818 1106.77 265.495 1106.84 265.173L1105.86 264.969Z" fill="black"/>
<path d="M1073.46 213.46L1125.84 184.372" stroke="black" stroke-linecap="round" stroke-linejoin="round"/>
<path d="M923.038 205.765L957.692 220.786" stroke="black" stroke-linecap="round" stroke-linejoin="round"/>
<path d="M922.961 224.11C932.798 224.11 940.773 216.138 940.773 206.303C940.773 196.469 932.798 188.497 922.961 188.497C913.124 188.497 905.149 196.469 905.149 206.303C905.149 216.138 913.124 224.11 922.961 224.11Z" fill="#F9EBFF" stroke="black" stroke-linecap="round" stroke-linejoin="round"/>
<path d="M922.961 214.86C927.688 214.86 931.521 211.029 931.521 206.303C931.521 201.578 927.688 197.746 922.961 197.746C918.234 197.746 914.401 201.578 914.401 206.303C914.401 211.029 918.234 214.86 922.961 214.86Z" fill="#B45AF2" stroke="black" stroke-miterlimit="10"/>
<path d="M1125.84 202.179C1135.67 202.179 1143.65 194.207 1143.65 184.372C1143.65 174.538 1135.67 166.566 1125.84 166.566C1116 166.566 1108.02 174.538 1108.02 184.372C1108.02 194.207 1116 202.179 1125.84 202.179Z" fill="#F9EBFF" stroke="black" stroke-linecap="round" stroke-linejoin="round"/>
<path d="M1125.84 192.929C1130.56 192.929 1134.39 189.098 1134.39 184.372C1134.39 179.647 1130.56 175.815 1125.84 175.815C1121.11 175.815 1117.28 179.647 1117.28 184.372C1117.28 189.098 1121.11 192.929 1125.84 192.929Z" fill="#B45AF2" stroke="black" stroke-miterlimit="10"/>
<mask id="mask0_3201_3661" style="mask-type:luminance" maskUnits="userSpaceOnUse" x="961" y="184" width="113" height="113">
<path d="M975.55 278.129C996.333 301.168 1031.85 303 1054.9 282.238C1077.94 261.462 1079.77 225.957 1059.01 202.918C1038.22 179.878 1002.71 178.047 979.661 198.808C956.614 219.585 954.782 255.09 975.55 278.129Z" fill="white"/>
</mask>
<g mask="url(#mask0_3201_3661)">
<path d="M968.022 220.416L1017.9 242.024L1031.46 233.636L1040.52 228.065L1068.77 212.367" stroke="black" stroke-linecap="round" stroke-linejoin="round"/>
<path d="M1017.9 268.634C1032.6 268.634 1044.52 256.72 1044.52 242.024C1044.52 227.328 1032.6 215.414 1017.9 215.414C1003.2 215.414 991.284 227.328 991.284 242.024C991.284 256.72 1003.2 268.634 1017.9 268.634Z" fill="#F9EBFF" stroke="black" stroke-linecap="round" stroke-linejoin="round"/>
<path d="M1017.9 254.829C1024.98 254.829 1030.71 249.096 1030.71 242.024C1030.71 234.952 1024.98 229.219 1017.9 229.219C1010.83 229.219 1005.09 234.952 1005.09 242.024C1005.09 249.096 1010.83 254.829 1017.9 254.829Z" fill="#B45AF2" stroke="black" stroke-miterlimit="10"/>
</g>
<path d="M1137.64 393.155C1137.64 393.155 1140.11 395.803 1146.77 389.616C1153.44 383.444 1150.98 380.782 1150.98 380.782L1073.79 287.979C1073.79 287.979 1070.75 286.163 1064.81 291.673C1058.87 297.182 1060.45 300.337 1060.45 300.337L1137.64 393.14V393.155Z" fill="#00ED64" stroke="black" stroke-miterlimit="10"/>
<path d="M1150.96 380.797L1073.77 287.994C1073.77 287.994 1070.74 286.178 1064.79 291.688C1059.44 296.674 1060.21 299.722 1060.41 300.276C1066.33 294.797 1069.35 296.613 1069.35 296.613L1146.54 389.416C1146.54 389.416 1146.62 389.493 1146.71 389.677C1146.71 389.662 1146.74 389.646 1146.76 389.631C1153.42 383.46 1150.96 380.797 1150.96 380.797Z" fill="black"/>
<path d="M1061.47 303.092C1061.47 303.092 1064.89 304.8 1071.32 298.998C1077.76 293.196 1076.42 289.626 1076.42 289.626L1065.76 277.806C1065.76 277.806 1064.24 280.345 1058.87 285.178C1053.49 290.026 1050.82 291.272 1050.82 291.272L1061.47 303.092Z" fill="#00ED64" stroke="black" stroke-miterlimit="10"/>
<path d="M976.613 199.886C1002.35 176.693 1042.04 178.74 1065.24 204.472C1088.44 230.204 1086.39 269.88 1060.65 293.073C1034.91 316.266 995.225 314.219 972.025 288.487C948.825 262.755 950.872 223.079 976.613 199.886ZM976.905 284.085C997.688 307.124 1033.2 308.956 1056.25 288.194C1079.3 267.418 1081.13 231.913 1060.36 208.874C1039.58 185.834 1004.06 184.003 981.016 204.764C957.969 225.541 956.137 261.046 976.905 284.085Z" fill="black" stroke="black" stroke-miterlimit="10"/>
<path d="M975.258 193.93C1001 170.737 1040.69 172.784 1063.89 198.516C1087.09 224.248 1085.04 263.924 1059.3 287.117C1033.56 310.31 993.87 308.263 970.67 282.531C947.47 256.799 949.517 217.123 975.258 193.93ZM975.55 278.129C996.333 301.168 1031.85 303 1054.9 282.238C1077.94 261.462 1079.77 225.957 1059.01 202.918C1038.22 179.878 1002.71 178.047 979.661 198.808C956.614 219.585 954.782 255.09 975.55 278.129Z" fill="#26ED56" stroke="black" stroke-miterlimit="10"/>
<path d="M975.258 193.93C1001 170.737 1040.69 172.784 1063.89 198.516C1087.09 224.248 1085.04 263.924 1059.3 287.117C1033.56 310.31 993.87 308.263 970.67 282.531C947.47 256.799 949.517 217.123 975.258 193.93ZM975.55 278.129C996.333 301.168 1031.85 303 1054.9 282.238C1077.94 261.462 1079.77 225.957 1059.01 202.918C1038.22 179.878 1002.71 178.047 979.661 198.808C956.614 219.585 954.782 255.09 975.55 278.129Z" fill="#00ED64" stroke="black" stroke-miterlimit="10"/>
<path d="M1062.3 284.593L1073.51 296.982C1073.51 296.982 1077.45 292.565 1076.49 289.549L1067.12 279.191L1062.3 284.609V284.593Z" fill="black"/>
</g>
</g>
<defs>
<clipPath id="clip0_3201_3661">
<rect width="1280" height="800" fill="white"/>
</clipPath>
<clipPath id="clip1_3201_3661">
<rect width="910" height="910" fill="white" transform="translate(632 -44)"/>
</clipPath>
<clipPath id="clip2_3201_3661">
<rect width="666" height="597" fill="white" transform="translate(499 133)"/>
</clipPath>
</defs>
</svg>
